{
 "cells": [
  {
   "cell_type": "code",
   "execution_count": 1,
   "metadata": {},
   "outputs": [],
   "source": [
    "import sys\n",
    "sys.path.insert(0, '/home/niell_lab/Documents/github/FreelyMovingEphys/')"
   ]
  },
  {
   "cell_type": "code",
   "execution_count": 2,
   "metadata": {},
   "outputs": [],
   "source": [
    "from utils.deinterlace import deinterlace_data"
   ]
  },
  {
   "cell_type": "code",
   "execution_count": 3,
   "metadata": {},
   "outputs": [],
   "source": [
    "config = {'animal_dir': '/home/niell_lab/data/freely_moving_ephys/dlc_training_data/EphysEyeCams8_training_data/',\n",
    "          'deinterlace': {'flip_eye_during_deinter': True}}"
   ]
  },
  {
   "cell_type": "code",
   "execution_count": 4,
   "metadata": {},
   "outputs": [
    {
     "name": "stdout",
     "output_type": "stream",
     "text": [
      "starting to deinterlace and interpolate on 100721_J582LT_control_Rig2_fm1_REYE\n"
     ]
    },
    {
     "name": "stderr",
     "output_type": "stream",
     "text": [
      "ffmpeg version 4.3.1 Copyright (c) 2000-2020 the FFmpeg developers\n",
      "  built with gcc 9.3.0 (crosstool-NG 1.24.0.133_b0863d8_dirty)\n",
      "  configuration: --prefix=/home/niell_lab/anaconda3/envs/DLC-GPU1 --cc=/home/conda/feedstock_root/build_artifacts/ffmpeg_1609680890771/_build_env/bin/x86_64-conda-linux-gnu-cc --disable-doc --disable-openssl --enable-avresample --enable-gnutls --enable-gpl --enable-hardcoded-tables --enable-libfreetype --enable-libopenh264 --enable-libx264 --enable-pic --enable-pthreads --enable-shared --enable-static --enable-version3 --enable-zlib --enable-libmp3lame --pkg-config=/home/conda/feedstock_root/build_artifacts/ffmpeg_1609680890771/_build_env/bin/pkg-config\n",
      "  libavutil      56. 51.100 / 56. 51.100\n",
      "  libavcodec     58. 91.100 / 58. 91.100\n",
      "  libavformat    58. 45.100 / 58. 45.100\n",
      "  libavdevice    58. 10.100 / 58. 10.100\n",
      "  libavfilter     7. 85.100 /  7. 85.100\n",
      "  libavresample   4.  0.  0 /  4.  0.  0\n",
      "  libswscale      5.  7.100 /  5.  7.100\n",
      "  libswresample   3.  7.100 /  3.  7.100\n",
      "  libpostproc    55.  7.100 / 55.  7.100\n",
      "Input #0, avi, from '/home/niell_lab/data/freely_moving_ephys/dlc_training_data/EphysEyeCams8_training_data/100721_J582LT_control_Rig2_fm1_REYE.avi':\n",
      "  Metadata:\n",
      "    encoder         : Lavf53.32.100\n",
      "  Duration: 00:23:04.03, start: 0.000000, bitrate: 2332 kb/s\n",
      "    Stream #0:0: Video: mpeg4 (Simple Profile) (FMP4 / 0x34504D46), yuv420p, 720x480 [SAR 1:1 DAR 3:2], 2326 kb/s, 30 fps, 30 tbr, 30 tbn, 30 tbc\n",
      "Codec AVOption b (set bitrate (in bits/s)) specified for output file #0 (/home/niell_lab/data/freely_moving_ephys/dlc_training_data/EphysEyeCams8_training_data/100721_J582LT_control_Rig2_fm1_REYEdeinter.avi) has not been used for any stream. The most likely reason is either wrong type (e.g. a video option with no video streams) or that it is a private option of some encoder which was not actually used for any stream.\n",
      "Stream mapping:\n",
      "  Stream #0:0 -> #0:0 (mpeg4 (native) -> h264 (libx264))\n",
      "Press [q] to stop, [?] for help\n",
      "[libx264 @ 0x5620740a1a40] using SAR=9/8\n",
      "[libx264 @ 0x5620740a1a40] using cpu capabilities: MMX2 SSE2Fast SSSE3 SSE4.2 AVX FMA3 BMI2 AVX2 AVX512\n",
      "[libx264 @ 0x5620740a1a40] profile High, level 3.1, 4:2:0, 8-bit\n",
      "Output #0, avi, to '/home/niell_lab/data/freely_moving_ephys/dlc_training_data/EphysEyeCams8_training_data/100721_J582LT_control_Rig2_fm1_REYEdeinter.avi':\n",
      "  Metadata:\n",
      "    ISFT            : Lavf58.45.100\n",
      "    Stream #0:0: Video: h264 (libx264) (H264 / 0x34363248), yuv420p, 640x480 [SAR 9:8 DAR 3:2], q=-1--1, 60 fps, 60 tbn, 60 tbc\n",
      "    Metadata:\n",
      "      encoder         : Lavc58.91.100 libx264\n",
      "    Side data:\n",
      "      cpb: bitrate max/min/avg: 0/0/0 buffer size: 0 vbv_delay: N/A\n",
      "frame=83042 fps=246 q=-1.0 Lsize=  187089kB time=00:23:04.00 bitrate=1107.4kbits/s speed=4.09x    \n",
      "video:185097kB audio:0kB subtitle:0kB other streams:0kB global headers:0kB muxing overhead: 1.076338%\n",
      "[libx264 @ 0x5620740a1a40] frame I:503   Avg QP:19.11  size: 13567\n",
      "[libx264 @ 0x5620740a1a40] frame P:21241 Avg QP:21.59  size:  5304\n",
      "[libx264 @ 0x5620740a1a40] frame B:61298 Avg QP:26.04  size:  1143\n",
      "[libx264 @ 0x5620740a1a40] consecutive B-frames:  1.5%  0.2%  0.4% 98.0%\n",
      "[libx264 @ 0x5620740a1a40] mb I  I16..4: 19.7% 74.8%  5.5%\n",
      "[libx264 @ 0x5620740a1a40] mb P  I16..4:  2.5%  3.6%  0.1%  P16..4: 51.0% 16.8%  6.8%  0.0%  0.0%    skip:19.2%\n",
      "[libx264 @ 0x5620740a1a40] mb B  I16..4:  0.1%  0.1%  0.0%  B16..8: 39.6%  2.9%  0.3%  direct: 1.6%  skip:55.4%  L0:54.1% L1:42.9% BI: 3.0%\n",
      "[libx264 @ 0x5620740a1a40] 8x8 transform intra:62.7% inter:74.6%\n",
      "[libx264 @ 0x5620740a1a40] direct mvs  spatial:100.0% temporal:0.0%\n",
      "[libx264 @ 0x5620740a1a40] coded y,uvDC,uvAC intra: 50.4% 37.6% 4.7% inter: 10.9% 6.0% 0.1%\n",
      "[libx264 @ 0x5620740a1a40] i16 v,h,dc,p:  9% 16%  5% 70%\n",
      "[libx264 @ 0x5620740a1a40] i8 v,h,dc,ddl,ddr,vr,hd,vl,hu:  9% 10% 12%  7% 13% 12% 14%  9% 15%\n",
      "[libx264 @ 0x5620740a1a40] i4 v,h,dc,ddl,ddr,vr,hd,vl,hu:  9%  6%  5%  9% 15% 14% 16% 11% 15%\n",
      "[libx264 @ 0x5620740a1a40] i8c dc,h,v,p: 52% 28% 14%  6%\n",
      "[libx264 @ 0x5620740a1a40] Weighted P-Frames: Y:1.5% UV:0.2%\n",
      "[libx264 @ 0x5620740a1a40] ref P L0: 47.7% 11.2% 23.2%  7.3% 10.4%  0.2%  0.0%\n",
      "[libx264 @ 0x5620740a1a40] ref B L0: 78.6% 15.6%  4.2%  1.6%\n",
      "[libx264 @ 0x5620740a1a40] ref B L1: 95.0%  5.0%\n",
      "[libx264 @ 0x5620740a1a40] kb/s:1095.58\n",
      "ffmpeg version 4.3.1 Copyright (c) 2000-2020 the FFmpeg developers\n",
      "  built with gcc 9.3.0 (crosstool-NG 1.24.0.133_b0863d8_dirty)\n",
      "  configuration: --prefix=/home/niell_lab/anaconda3/envs/DLC-GPU1 --cc=/home/conda/feedstock_root/build_artifacts/ffmpeg_1609680890771/_build_env/bin/x86_64-conda-linux-gnu-cc --disable-doc --disable-openssl --enable-avresample --enable-gnutls --enable-gpl --enable-hardcoded-tables --enable-libfreetype --enable-libopenh264 --enable-libx264 --enable-pic --enable-pthreads --enable-shared --enable-static --enable-version3 --enable-zlib --enable-libmp3lame --pkg-config=/home/conda/feedstock_root/build_artifacts/ffmpeg_1609680890771/_build_env/bin/pkg-config\n",
      "  libavutil      56. 51.100 / 56. 51.100\n",
      "  libavcodec     58. 91.100 / 58. 91.100\n",
      "  libavformat    58. 45.100 / 58. 45.100\n",
      "  libavdevice    58. 10.100 / 58. 10.100\n",
      "  libavfilter     7. 85.100 /  7. 85.100\n",
      "  libavresample   4.  0.  0 /  4.  0.  0\n",
      "  libswscale      5.  7.100 /  5.  7.100\n",
      "  libswresample   3.  7.100 /  3.  7.100\n",
      "  libpostproc    55.  7.100 / 55.  7.100\n",
      "Input #0, avi, from '/home/niell_lab/data/freely_moving_ephys/dlc_training_data/EphysEyeCams8_training_data/100821_J559TT_control_Rig2_fm1_REYE.avi':\n",
      "  Metadata:\n",
      "    encoder         : Lavf53.32.100\n",
      "  Duration: 00:24:05.33, start: 0.000000, bitrate: 2531 kb/s\n",
      "    Stream #0:0: Video: mpeg4 (Simple Profile) (FMP4 / 0x34504D46), yuv420p, 720x480 [SAR 1:1 DAR 3:2], 2525 kb/s, 30 fps, 30 tbr, 30 tbn, 30 tbc\n",
      "Codec AVOption b (set bitrate (in bits/s)) specified for output file #0 (/home/niell_lab/data/freely_moving_ephys/dlc_training_data/EphysEyeCams8_training_data/100821_J559TT_control_Rig2_fm1_REYEdeinter.avi) has not been used for any stream. The most likely reason is either wrong type (e.g. a video option with no video streams) or that it is a private option of some encoder which was not actually used for any stream.\n",
      "Stream mapping:\n",
      "  Stream #0:0 -> #0:0 (mpeg4 (native) -> h264 (libx264))\n",
      "Press [q] to stop, [?] for help\n",
      "[libx264 @ 0x56099238fa40] using SAR=9/8\n",
      "[libx264 @ 0x56099238fa40] using cpu capabilities: MMX2 SSE2Fast SSSE3 SSE4.2 AVX FMA3 BMI2 AVX2 AVX512\n",
      "[libx264 @ 0x56099238fa40] profile High, level 3.1, 4:2:0, 8-bit\n",
      "Output #0, avi, to '/home/niell_lab/data/freely_moving_ephys/dlc_training_data/EphysEyeCams8_training_data/100821_J559TT_control_Rig2_fm1_REYEdeinter.avi':\n",
      "  Metadata:\n",
      "    ISFT            : Lavf58.45.100\n",
      "    Stream #0:0: Video: h264 (libx264) (H264 / 0x34363248), yuv420p, 640x480 [SAR 9:8 DAR 3:2], q=-1--1, 60 fps, 60 tbn, 60 tbc\n",
      "    Metadata:\n",
      "      encoder         : Lavc58.91.100 libx264\n",
      "    Side data:\n",
      "      cpb: bitrate max/min/avg: 0/0/0 buffer size: 0 vbv_delay: N/A\n"
     ]
    },
    {
     "name": "stdout",
     "output_type": "stream",
     "text": [
      "starting to deinterlace and interpolate on 100821_J559TT_control_Rig2_fm1_REYE\n"
     ]
    },
    {
     "name": "stderr",
     "output_type": "stream",
     "text": [
      "frame=86720 fps=252 q=-1.0 Lsize=  196057kB time=00:24:05.30 bitrate=1111.3kbits/s speed=4.21x    \n",
      "video:193977kB audio:0kB subtitle:0kB other streams:0kB global headers:0kB muxing overhead: 1.072515%\n",
      "[libx264 @ 0x56099238fa40] frame I:433   Avg QP:18.99  size: 15264\n",
      "[libx264 @ 0x56099238fa40] frame P:22146 Avg QP:21.56  size:  5430\n",
      "[libx264 @ 0x56099238fa40] frame B:64141 Avg QP:25.66  size:  1119\n",
      "[libx264 @ 0x56099238fa40] consecutive B-frames:  1.3%  0.2%  0.4% 98.2%\n",
      "[libx264 @ 0x56099238fa40] mb I  I16..4: 17.9% 75.0%  7.1%\n",
      "[libx264 @ 0x56099238fa40] mb P  I16..4:  2.4%  3.8%  0.1%  P16..4: 51.1% 16.6%  7.5%  0.0%  0.0%    skip:18.5%\n",
      "[libx264 @ 0x56099238fa40] mb B  I16..4:  0.1%  0.1%  0.0%  B16..8: 40.5%  3.0%  0.3%  direct: 1.2%  skip:54.8%  L0:52.8% L1:44.0% BI: 3.2%\n",
      "[libx264 @ 0x56099238fa40] 8x8 transform intra:63.1% inter:76.0%\n",
      "[libx264 @ 0x56099238fa40] direct mvs  spatial:100.0% temporal:0.0%\n",
      "[libx264 @ 0x56099238fa40] coded y,uvDC,uvAC intra: 48.7% 36.3% 5.3% inter: 10.4% 6.7% 0.2%\n",
      "[libx264 @ 0x56099238fa40] i16 v,h,dc,p: 11% 15%  6% 67%\n",
      "[libx264 @ 0x56099238fa40] i8 v,h,dc,ddl,ddr,vr,hd,vl,hu:  9% 10% 13%  5% 17% 13% 17%  6% 11%\n",
      "[libx264 @ 0x56099238fa40] i4 v,h,dc,ddl,ddr,vr,hd,vl,hu:  7%  6%  5%  6% 22% 15% 21%  8% 11%\n",
      "[libx264 @ 0x56099238fa40] i8c dc,h,v,p: 53% 27% 14%  6%\n",
      "[libx264 @ 0x56099238fa40] Weighted P-Frames: Y:7.4% UV:0.3%\n",
      "[libx264 @ 0x56099238fa40] ref P L0: 46.5% 10.0% 23.9%  8.2% 10.6%  0.9%  0.0%\n",
      "[libx264 @ 0x56099238fa40] ref B L0: 78.0% 16.0%  4.3%  1.7%\n",
      "[libx264 @ 0x56099238fa40] ref B L1: 95.0%  5.0%\n",
      "[libx264 @ 0x56099238fa40] kb/s:1099.44\n",
      "ffmpeg version 4.3.1 Copyright (c) 2000-2020 the FFmpeg developers\n",
      "  built with gcc 9.3.0 (crosstool-NG 1.24.0.133_b0863d8_dirty)\n",
      "  configuration: --prefix=/home/niell_lab/anaconda3/envs/DLC-GPU1 --cc=/home/conda/feedstock_root/build_artifacts/ffmpeg_1609680890771/_build_env/bin/x86_64-conda-linux-gnu-cc --disable-doc --disable-openssl --enable-avresample --enable-gnutls --enable-gpl --enable-hardcoded-tables --enable-libfreetype --enable-libopenh264 --enable-libx264 --enable-pic --enable-pthreads --enable-shared --enable-static --enable-version3 --enable-zlib --enable-libmp3lame --pkg-config=/home/conda/feedstock_root/build_artifacts/ffmpeg_1609680890771/_build_env/bin/pkg-config\n",
      "  libavutil      56. 51.100 / 56. 51.100\n",
      "  libavcodec     58. 91.100 / 58. 91.100\n",
      "  libavformat    58. 45.100 / 58. 45.100\n",
      "  libavdevice    58. 10.100 / 58. 10.100\n",
      "  libavfilter     7. 85.100 /  7. 85.100\n",
      "  libavresample   4.  0.  0 /  4.  0.  0\n",
      "  libswscale      5.  7.100 /  5.  7.100\n",
      "  libswresample   3.  7.100 /  3.  7.100\n",
      "  libpostproc    55.  7.100 / 55.  7.100\n",
      "Input #0, avi, from '/home/niell_lab/data/freely_moving_ephys/dlc_training_data/EphysEyeCams8_training_data/100821_J559TT_control_Rig2_fm1_dark_REYE.avi':\n",
      "  Metadata:\n",
      "    encoder         : Lavf53.32.100\n",
      "  Duration: 00:21:42.67, start: 0.000000, bitrate: 2180 kb/s\n",
      "    Stream #0:0: Video: mpeg4 (Simple Profile) (FMP4 / 0x34504D46), yuv420p, 720x480 [SAR 1:1 DAR 3:2], 2174 kb/s, 30 fps, 30 tbr, 30 tbn, 30 tbc\n",
      "Codec AVOption b (set bitrate (in bits/s)) specified for output file #0 (/home/niell_lab/data/freely_moving_ephys/dlc_training_data/EphysEyeCams8_training_data/100821_J559TT_control_Rig2_fm1_dark_REYEdeinter.avi) has not been used for any stream. The most likely reason is either wrong type (e.g. a video option with no video streams) or that it is a private option of some encoder which was not actually used for any stream.\n",
      "Stream mapping:\n",
      "  Stream #0:0 -> #0:0 (mpeg4 (native) -> h264 (libx264))\n",
      "Press [q] to stop, [?] for help\n",
      "[libx264 @ 0x56437bb66a40] using SAR=9/8\n",
      "[libx264 @ 0x56437bb66a40] using cpu capabilities: MMX2 SSE2Fast SSSE3 SSE4.2 AVX FMA3 BMI2 AVX2 AVX512\n",
      "[libx264 @ 0x56437bb66a40] profile High, level 3.1, 4:2:0, 8-bit\n",
      "Output #0, avi, to '/home/niell_lab/data/freely_moving_ephys/dlc_training_data/EphysEyeCams8_training_data/100821_J559TT_control_Rig2_fm1_dark_REYEdeinter.avi':\n",
      "  Metadata:\n",
      "    ISFT            : Lavf58.45.100\n",
      "    Stream #0:0: Video: h264 (libx264) (H264 / 0x34363248), yuv420p, 640x480 [SAR 9:8 DAR 3:2], q=-1--1, 60 fps, 60 tbn, 60 tbc\n",
      "    Metadata:\n",
      "      encoder         : Lavc58.91.100 libx264\n",
      "    Side data:\n",
      "      cpb: bitrate max/min/avg: 0/0/0 buffer size: 0 vbv_delay: N/A\n"
     ]
    },
    {
     "name": "stdout",
     "output_type": "stream",
     "text": [
      "starting to deinterlace and interpolate on 100821_J559TT_control_Rig2_fm1_dark_REYE\n"
     ]
    },
    {
     "name": "stderr",
     "output_type": "stream",
     "text": [
      "frame=78160 fps=265 q=-1.0 Lsize=  154946kB time=00:21:42.63 bitrate= 974.4kbits/s speed=4.42x    \n",
      "video:153070kB audio:0kB subtitle:0kB other streams:0kB global headers:0kB muxing overhead: 1.225240%\n",
      "[libx264 @ 0x56437bb66a40] frame I:473   Avg QP:18.84  size: 14464\n",
      "[libx264 @ 0x56437bb66a40] frame P:20551 Avg QP:21.15  size:  4931\n",
      "[libx264 @ 0x56437bb66a40] frame B:57136 Avg QP:25.76  size:   850\n",
      "[libx264 @ 0x56437bb66a40] consecutive B-frames:  2.4%  0.2%  0.3% 97.0%\n",
      "[libx264 @ 0x56437bb66a40] mb I  I16..4: 20.9% 72.6%  6.5%\n",
      "[libx264 @ 0x56437bb66a40] mb P  I16..4:  2.7%  3.8%  0.2%  P16..4: 47.3% 15.0%  7.2%  0.0%  0.0%    skip:24.0%\n",
      "[libx264 @ 0x56437bb66a40] mb B  I16..4:  0.1%  0.1%  0.0%  B16..8: 36.1%  2.0%  0.2%  direct: 0.9%  skip:60.6%  L0:48.3% L1:48.9% BI: 2.8%\n",
      "[libx264 @ 0x56437bb66a40] 8x8 transform intra:61.0% inter:72.4%\n",
      "[libx264 @ 0x56437bb66a40] direct mvs  spatial:100.0% temporal:0.0%\n",
      "[libx264 @ 0x56437bb66a40] coded y,uvDC,uvAC intra: 47.3% 40.8% 6.1% inter: 8.4% 6.4% 0.2%\n",
      "[libx264 @ 0x56437bb66a40] i16 v,h,dc,p: 10% 16%  6% 69%\n",
      "[libx264 @ 0x56437bb66a40] i8 v,h,dc,ddl,ddr,vr,hd,vl,hu:  9% 11% 12%  5% 16% 13% 16%  7% 11%\n",
      "[libx264 @ 0x56437bb66a40] i4 v,h,dc,ddl,ddr,vr,hd,vl,hu:  8%  7%  5%  6% 21% 14% 20%  8% 11%\n",
      "[libx264 @ 0x56437bb66a40] i8c dc,h,v,p: 47% 31% 15%  6%\n",
      "[libx264 @ 0x56437bb66a40] Weighted P-Frames: Y:2.6% UV:0.5%\n",
      "[libx264 @ 0x56437bb66a40] ref P L0: 50.4%  9.8% 23.6%  6.8%  9.0%  0.5%  0.0%\n",
      "[libx264 @ 0x56437bb66a40] ref B L0: 78.4% 16.2%  3.9%  1.6%\n",
      "[libx264 @ 0x56437bb66a40] ref B L1: 95.1%  4.9%\n",
      "[libx264 @ 0x56437bb66a40] kb/s:962.60\n",
      "ffmpeg version 4.3.1 Copyright (c) 2000-2020 the FFmpeg developers\n",
      "  built with gcc 9.3.0 (crosstool-NG 1.24.0.133_b0863d8_dirty)\n",
      "  configuration: --prefix=/home/niell_lab/anaconda3/envs/DLC-GPU1 --cc=/home/conda/feedstock_root/build_artifacts/ffmpeg_1609680890771/_build_env/bin/x86_64-conda-linux-gnu-cc --disable-doc --disable-openssl --enable-avresample --enable-gnutls --enable-gpl --enable-hardcoded-tables --enable-libfreetype --enable-libopenh264 --enable-libx264 --enable-pic --enable-pthreads --enable-shared --enable-static --enable-version3 --enable-zlib --enable-libmp3lame --pkg-config=/home/conda/feedstock_root/build_artifacts/ffmpeg_1609680890771/_build_env/bin/pkg-config\n",
      "  libavutil      56. 51.100 / 56. 51.100\n",
      "  libavcodec     58. 91.100 / 58. 91.100\n",
      "  libavformat    58. 45.100 / 58. 45.100\n",
      "  libavdevice    58. 10.100 / 58. 10.100\n",
      "  libavfilter     7. 85.100 /  7. 85.100\n",
      "  libavresample   4.  0.  0 /  4.  0.  0\n",
      "  libswscale      5.  7.100 /  5.  7.100\n",
      "  libswresample   3.  7.100 /  3.  7.100\n",
      "  libpostproc    55.  7.100 / 55.  7.100\n",
      "Input #0, avi, from '/home/niell_lab/data/freely_moving_ephys/dlc_training_data/EphysEyeCams8_training_data/100821_J559RT_control_Rig2_hf1_wn_REYE.avi':\n",
      "  Metadata:\n",
      "    encoder         : Lavf53.32.100\n",
      "  Duration: 00:15:23.33, start: 0.000000, bitrate: 2219 kb/s\n",
      "    Stream #0:0: Video: mpeg4 (Simple Profile) (FMP4 / 0x34504D46), yuv420p, 720x480 [SAR 1:1 DAR 3:2], 2213 kb/s, 30 fps, 30 tbr, 30 tbn, 30 tbc\n",
      "Codec AVOption b (set bitrate (in bits/s)) specified for output file #0 (/home/niell_lab/data/freely_moving_ephys/dlc_training_data/EphysEyeCams8_training_data/100821_J559RT_control_Rig2_hf1_wn_REYEdeinter.avi) has not been used for any stream. The most likely reason is either wrong type (e.g. a video option with no video streams) or that it is a private option of some encoder which was not actually used for any stream.\n",
      "Stream mapping:\n",
      "  Stream #0:0 -> #0:0 (mpeg4 (native) -> h264 (libx264))\n",
      "Press [q] to stop, [?] for help\n",
      "[libx264 @ 0x55c74b893a40] using SAR=9/8\n",
      "[libx264 @ 0x55c74b893a40] using cpu capabilities: MMX2 SSE2Fast SSSE3 SSE4.2 AVX FMA3 BMI2 AVX2 AVX512\n",
      "[libx264 @ 0x55c74b893a40] profile High, level 3.1, 4:2:0, 8-bit\n",
      "Output #0, avi, to '/home/niell_lab/data/freely_moving_ephys/dlc_training_data/EphysEyeCams8_training_data/100821_J559RT_control_Rig2_hf1_wn_REYEdeinter.avi':\n",
      "  Metadata:\n",
      "    ISFT            : Lavf58.45.100\n",
      "    Stream #0:0: Video: h264 (libx264) (H264 / 0x34363248), yuv420p, 640x480 [SAR 9:8 DAR 3:2], q=-1--1, 60 fps, 60 tbn, 60 tbc\n",
      "    Metadata:\n",
      "      encoder         : Lavc58.91.100 libx264\n",
      "    Side data:\n",
      "      cpb: bitrate max/min/avg: 0/0/0 buffer size: 0 vbv_delay: N/A\n"
     ]
    },
    {
     "name": "stdout",
     "output_type": "stream",
     "text": [
      "starting to deinterlace and interpolate on 100821_J559RT_control_Rig2_hf1_wn_REYE\n"
     ]
    },
    {
     "name": "stderr",
     "output_type": "stream",
     "text": [
      "frame=55400 fps=270 q=-1.0 Lsize=  109670kB time=00:15:23.30 bitrate= 973.1kbits/s speed= 4.5x    \n",
      "video:108339kB audio:0kB subtitle:0kB other streams:0kB global headers:0kB muxing overhead: 1.228672%\n",
      "[libx264 @ 0x55c74b893a40] frame I:226   Avg QP:18.52  size: 14886\n",
      "[libx264 @ 0x55c74b893a40] frame P:13985 Avg QP:21.47  size:  4613\n",
      "[libx264 @ 0x55c74b893a40] frame B:41189 Avg QP:26.15  size:  1045\n",
      "[libx264 @ 0x55c74b893a40] consecutive B-frames:  0.9%  0.0%  0.1% 99.1%\n",
      "[libx264 @ 0x55c74b893a40] mb I  I16..4: 17.6% 75.6%  6.8%\n",
      "[libx264 @ 0x55c74b893a40] mb P  I16..4:  2.0%  2.8%  0.1%  P16..4: 52.9% 15.2%  6.9%  0.0%  0.0%    skip:20.0%\n",
      "[libx264 @ 0x55c74b893a40] mb B  I16..4:  0.0%  0.1%  0.0%  B16..8: 40.1%  2.7%  0.3%  direct: 1.1%  skip:55.8%  L0:59.8% L1:37.9% BI: 2.4%\n",
      "[libx264 @ 0x55c74b893a40] 8x8 transform intra:61.9% inter:75.2%\n",
      "[libx264 @ 0x55c74b893a40] direct mvs  spatial:100.0% temporal:0.0%\n",
      "[libx264 @ 0x55c74b893a40] coded y,uvDC,uvAC intra: 43.6% 35.6% 6.0% inter: 8.8% 5.2% 0.1%\n",
      "[libx264 @ 0x55c74b893a40] i16 v,h,dc,p: 14% 17%  7% 62%\n",
      "[libx264 @ 0x55c74b893a40] i8 v,h,dc,ddl,ddr,vr,hd,vl,hu: 10% 12% 18%  6% 11% 10% 14%  7% 12%\n",
      "[libx264 @ 0x55c74b893a40] i4 v,h,dc,ddl,ddr,vr,hd,vl,hu: 11%  8%  8%  8% 14% 12% 16%  9% 13%\n",
      "[libx264 @ 0x55c74b893a40] i8c dc,h,v,p: 53% 27% 14%  6%\n",
      "[libx264 @ 0x55c74b893a40] Weighted P-Frames: Y:0.0% UV:0.0%\n",
      "[libx264 @ 0x55c74b893a40] ref P L0: 43.3%  8.9% 24.1%  9.3% 14.4%  0.0%  0.0%\n",
      "[libx264 @ 0x55c74b893a40] ref B L0: 73.0% 18.6%  6.0%  2.4%\n",
      "[libx264 @ 0x55c74b893a40] ref B L1: 94.2%  5.8%\n",
      "[libx264 @ 0x55c74b893a40] kb/s:961.21\n",
      "ffmpeg version 4.3.1 Copyright (c) 2000-2020 the FFmpeg developers\n",
      "  built with gcc 9.3.0 (crosstool-NG 1.24.0.133_b0863d8_dirty)\n",
      "  configuration: --prefix=/home/niell_lab/anaconda3/envs/DLC-GPU1 --cc=/home/conda/feedstock_root/build_artifacts/ffmpeg_1609680890771/_build_env/bin/x86_64-conda-linux-gnu-cc --disable-doc --disable-openssl --enable-avresample --enable-gnutls --enable-gpl --enable-hardcoded-tables --enable-libfreetype --enable-libopenh264 --enable-libx264 --enable-pic --enable-pthreads --enable-shared --enable-static --enable-version3 --enable-zlib --enable-libmp3lame --pkg-config=/home/conda/feedstock_root/build_artifacts/ffmpeg_1609680890771/_build_env/bin/pkg-config\n",
      "  libavutil      56. 51.100 / 56. 51.100\n",
      "  libavcodec     58. 91.100 / 58. 91.100\n",
      "  libavformat    58. 45.100 / 58. 45.100\n",
      "  libavdevice    58. 10.100 / 58. 10.100\n",
      "  libavfilter     7. 85.100 /  7. 85.100\n",
      "  libavresample   4.  0.  0 /  4.  0.  0\n",
      "  libswscale      5.  7.100 /  5.  7.100\n",
      "  libswresample   3.  7.100 /  3.  7.100\n",
      "  libpostproc    55.  7.100 / 55.  7.100\n",
      "Input #0, avi, from '/home/niell_lab/data/freely_moving_ephys/dlc_training_data/EphysEyeCams8_training_data/100721_J582LT_control_Rig2_fm2_REYE.avi':\n",
      "  Metadata:\n",
      "    encoder         : Lavf53.32.100\n",
      "  Duration: 00:24:30.27, start: 0.000000, bitrate: 2381 kb/s\n",
      "    Stream #0:0: Video: mpeg4 (Simple Profile) (FMP4 / 0x34504D46), yuv420p, 720x480 [SAR 1:1 DAR 3:2], 2375 kb/s, 30 fps, 30 tbr, 30 tbn, 30 tbc\n",
      "Codec AVOption b (set bitrate (in bits/s)) specified for output file #0 (/home/niell_lab/data/freely_moving_ephys/dlc_training_data/EphysEyeCams8_training_data/100721_J582LT_control_Rig2_fm2_REYEdeinter.avi) has not been used for any stream. The most likely reason is either wrong type (e.g. a video option with no video streams) or that it is a private option of some encoder which was not actually used for any stream.\n",
      "Stream mapping:\n",
      "  Stream #0:0 -> #0:0 (mpeg4 (native) -> h264 (libx264))\n",
      "Press [q] to stop, [?] for help\n",
      "[libx264 @ 0x55f59b3bf900] using SAR=9/8\n",
      "[libx264 @ 0x55f59b3bf900] using cpu capabilities: MMX2 SSE2Fast SSSE3 SSE4.2 AVX FMA3 BMI2 AVX2 AVX512\n",
      "[libx264 @ 0x55f59b3bf900] profile High, level 3.1, 4:2:0, 8-bit\n",
      "Output #0, avi, to '/home/niell_lab/data/freely_moving_ephys/dlc_training_data/EphysEyeCams8_training_data/100721_J582LT_control_Rig2_fm2_REYEdeinter.avi':\n",
      "  Metadata:\n",
      "    ISFT            : Lavf58.45.100\n",
      "    Stream #0:0: Video: h264 (libx264) (H264 / 0x34363248), yuv420p, 640x480 [SAR 9:8 DAR 3:2], q=-1--1, 60 fps, 60 tbn, 60 tbc\n",
      "    Metadata:\n",
      "      encoder         : Lavc58.91.100 libx264\n",
      "    Side data:\n",
      "      cpb: bitrate max/min/avg: 0/0/0 buffer size: 0 vbv_delay: N/A\n"
     ]
    },
    {
     "name": "stdout",
     "output_type": "stream",
     "text": [
      "starting to deinterlace and interpolate on 100721_J582LT_control_Rig2_fm2_REYE\n"
     ]
    },
    {
     "name": "stderr",
     "output_type": "stream",
     "text": [
      "frame=88216 fps=248 q=-1.0 Lsize=  194940kB time=00:24:30.23 bitrate=1086.2kbits/s speed=4.14x    \n",
      "video:192823kB audio:0kB subtitle:0kB other streams:0kB global headers:0kB muxing overhead: 1.097578%\n",
      "[libx264 @ 0x55f59b3bf900] frame I:829   Avg QP:19.45  size: 12069\n",
      "[libx264 @ 0x55f59b3bf900] frame P:23166 Avg QP:21.44  size:  4950\n",
      "[libx264 @ 0x55f59b3bf900] frame B:64221 Avg QP:26.13  size:  1133\n",
      "[libx264 @ 0x55f59b3bf900] consecutive B-frames:  2.7%  0.4%  0.9% 96.0%\n",
      "[libx264 @ 0x55f59b3bf900] mb I  I16..4: 21.6% 73.3%  5.1%\n",
      "[libx264 @ 0x55f59b3bf900] mb P  I16..4:  3.6%  5.3%  0.1%  P16..4: 48.6% 14.9%  6.2%  0.0%  0.0%    skip:21.3%\n",
      "[libx264 @ 0x55f59b3bf900] mb B  I16..4:  0.2%  0.2%  0.0%  B16..8: 36.8%  2.9%  0.3%  direct: 1.9%  skip:57.6%  L0:53.5% L1:43.8% BI: 2.8%\n",
      "[libx264 @ 0x55f59b3bf900] 8x8 transform intra:62.5% inter:76.7%\n",
      "[libx264 @ 0x55f59b3bf900] direct mvs  spatial:100.0% temporal:0.0%\n",
      "[libx264 @ 0x55f59b3bf900] coded y,uvDC,uvAC intra: 49.7% 36.6% 4.1% inter: 10.9% 7.3% 0.1%\n",
      "[libx264 @ 0x55f59b3bf900] i16 v,h,dc,p:  8% 17%  4% 71%\n",
      "[libx264 @ 0x55f59b3bf900] i8 v,h,dc,ddl,ddr,vr,hd,vl,hu:  8% 11% 11%  7% 14% 12% 14%  9% 14%\n",
      "[libx264 @ 0x55f59b3bf900] i4 v,h,dc,ddl,ddr,vr,hd,vl,hu:  8%  7%  5%  9% 15% 14% 17% 11% 15%\n",
      "[libx264 @ 0x55f59b3bf900] i8c dc,h,v,p: 51% 30% 13%  6%\n",
      "[libx264 @ 0x55f59b3bf900] Weighted P-Frames: Y:3.6% UV:0.9%\n",
      "[libx264 @ 0x55f59b3bf900] ref P L0: 49.1% 10.4% 22.5%  7.4% 10.1%  0.6%  0.0%\n",
      "[libx264 @ 0x55f59b3bf900] ref B L0: 79.1% 15.3%  3.9%  1.6%\n",
      "[libx264 @ 0x55f59b3bf900] ref B L1: 95.3%  4.7%\n",
      "[libx264 @ 0x55f59b3bf900] kb/s:1074.37\n",
      "ffmpeg version 4.3.1 Copyright (c) 2000-2020 the FFmpeg developers\n",
      "  built with gcc 9.3.0 (crosstool-NG 1.24.0.133_b0863d8_dirty)\n",
      "  configuration: --prefix=/home/niell_lab/anaconda3/envs/DLC-GPU1 --cc=/home/conda/feedstock_root/build_artifacts/ffmpeg_1609680890771/_build_env/bin/x86_64-conda-linux-gnu-cc --disable-doc --disable-openssl --enable-avresample --enable-gnutls --enable-gpl --enable-hardcoded-tables --enable-libfreetype --enable-libopenh264 --enable-libx264 --enable-pic --enable-pthreads --enable-shared --enable-static --enable-version3 --enable-zlib --enable-libmp3lame --pkg-config=/home/conda/feedstock_root/build_artifacts/ffmpeg_1609680890771/_build_env/bin/pkg-config\n",
      "  libavutil      56. 51.100 / 56. 51.100\n",
      "  libavcodec     58. 91.100 / 58. 91.100\n",
      "  libavformat    58. 45.100 / 58. 45.100\n",
      "  libavdevice    58. 10.100 / 58. 10.100\n",
      "  libavfilter     7. 85.100 /  7. 85.100\n",
      "  libavresample   4.  0.  0 /  4.  0.  0\n",
      "  libswscale      5.  7.100 /  5.  7.100\n",
      "  libswresample   3.  7.100 /  3.  7.100\n",
      "  libpostproc    55.  7.100 / 55.  7.100\n",
      "Input #0, avi, from '/home/niell_lab/data/freely_moving_ephys/dlc_training_data/EphysEyeCams8_training_data/100921_J559RT_control_Rig2_fm1_dark_REYE.avi':\n",
      "  Metadata:\n",
      "    encoder         : Lavf53.32.100\n",
      "  Duration: 00:24:13.33, start: 0.000000, bitrate: 2320 kb/s\n",
      "    Stream #0:0: Video: mpeg4 (Simple Profile) (FMP4 / 0x34504D46), yuv420p, 720x480 [SAR 1:1 DAR 3:2], 2314 kb/s, 30 fps, 30 tbr, 30 tbn, 30 tbc\n",
      "Codec AVOption b (set bitrate (in bits/s)) specified for output file #0 (/home/niell_lab/data/freely_moving_ephys/dlc_training_data/EphysEyeCams8_training_data/100921_J559RT_control_Rig2_fm1_dark_REYEdeinter.avi) has not been used for any stream. The most likely reason is either wrong type (e.g. a video option with no video streams) or that it is a private option of some encoder which was not actually used for any stream.\n",
      "Stream mapping:\n",
      "  Stream #0:0 -> #0:0 (mpeg4 (native) -> h264 (libx264))\n",
      "Press [q] to stop, [?] for help\n",
      "[libx264 @ 0x55fbe5e575c0] using SAR=9/8\n",
      "[libx264 @ 0x55fbe5e575c0] using cpu capabilities: MMX2 SSE2Fast SSSE3 SSE4.2 AVX FMA3 BMI2 AVX2 AVX512\n",
      "[libx264 @ 0x55fbe5e575c0] profile High, level 3.1, 4:2:0, 8-bit\n",
      "Output #0, avi, to '/home/niell_lab/data/freely_moving_ephys/dlc_training_data/EphysEyeCams8_training_data/100921_J559RT_control_Rig2_fm1_dark_REYEdeinter.avi':\n",
      "  Metadata:\n",
      "    ISFT            : Lavf58.45.100\n",
      "    Stream #0:0: Video: h264 (libx264) (H264 / 0x34363248), yuv420p, 640x480 [SAR 9:8 DAR 3:2], q=-1--1, 60 fps, 60 tbn, 60 tbc\n",
      "    Metadata:\n",
      "      encoder         : Lavc58.91.100 libx264\n",
      "    Side data:\n",
      "      cpb: bitrate max/min/avg: 0/0/0 buffer size: 0 vbv_delay: N/A\n"
     ]
    },
    {
     "name": "stdout",
     "output_type": "stream",
     "text": [
      "starting to deinterlace and interpolate on 100921_J559RT_control_Rig2_fm1_dark_REYE\n"
     ]
    },
    {
     "name": "stderr",
     "output_type": "stream",
     "text": [
      "frame=87200 fps=259 q=-1.0 Lsize=  181348kB time=00:24:13.30 bitrate=1022.2kbits/s speed=4.32x    \n",
      "video:179256kB audio:0kB subtitle:0kB other streams:0kB global headers:0kB muxing overhead: 1.167107%\n",
      "[libx264 @ 0x55fbe5e575c0] frame I:787   Avg QP:19.47  size:  9644\n",
      "[libx264 @ 0x55fbe5e575c0] frame P:23189 Avg QP:21.79  size:  4346\n",
      "[libx264 @ 0x55fbe5e575c0] frame B:63224 Avg QP:25.24  size:  1189\n",
      "[libx264 @ 0x55fbe5e575c0] consecutive B-frames:  3.1%  0.5%  1.0% 95.5%\n",
      "[libx264 @ 0x55fbe5e575c0] mb I  I16..4: 25.5% 70.4%  4.1%\n",
      "[libx264 @ 0x55fbe5e575c0] mb P  I16..4:  4.2%  5.2%  0.1%  P16..4: 50.9% 13.6%  6.1%  0.0%  0.0%    skip:19.9%\n",
      "[libx264 @ 0x55fbe5e575c0] mb B  I16..4:  0.2%  0.2%  0.0%  B16..8: 40.4%  3.2%  0.3%  direct: 1.4%  skip:54.3%  L0:52.9% L1:44.8% BI: 2.3%\n",
      "[libx264 @ 0x55fbe5e575c0] 8x8 transform intra:58.5% inter:82.2%\n",
      "[libx264 @ 0x55fbe5e575c0] direct mvs  spatial:100.0% temporal:0.0%\n",
      "[libx264 @ 0x55fbe5e575c0] coded y,uvDC,uvAC intra: 41.0% 34.5% 4.1% inter: 9.3% 7.0% 0.0%\n",
      "[libx264 @ 0x55fbe5e575c0] i16 v,h,dc,p: 10% 16%  6% 68%\n",
      "[libx264 @ 0x55fbe5e575c0] i8 v,h,dc,ddl,ddr,vr,hd,vl,hu:  8% 11% 15%  6% 13% 11% 13%  8% 13%\n",
      "[libx264 @ 0x55fbe5e575c0] i4 v,h,dc,ddl,ddr,vr,hd,vl,hu: 10%  8%  6%  8% 15% 13% 16% 11% 13%\n",
      "[libx264 @ 0x55fbe5e575c0] i8c dc,h,v,p: 53% 28% 13%  6%\n",
      "[libx264 @ 0x55fbe5e575c0] Weighted P-Frames: Y:6.1% UV:0.5%\n",
      "[libx264 @ 0x55fbe5e575c0] ref P L0: 47.8%  8.5% 24.0%  8.8%  9.9%  1.0%  0.0%\n",
      "[libx264 @ 0x55fbe5e575c0] ref B L0: 76.5% 16.6%  5.1%  1.8%\n",
      "[libx264 @ 0x55fbe5e575c0] ref B L1: 94.3%  5.7%\n",
      "[libx264 @ 0x55fbe5e575c0] kb/s:1010.41\n",
      "ffmpeg version 4.3.1 Copyright (c) 2000-2020 the FFmpeg developers\n",
      "  built with gcc 9.3.0 (crosstool-NG 1.24.0.133_b0863d8_dirty)\n",
      "  configuration: --prefix=/home/niell_lab/anaconda3/envs/DLC-GPU1 --cc=/home/conda/feedstock_root/build_artifacts/ffmpeg_1609680890771/_build_env/bin/x86_64-conda-linux-gnu-cc --disable-doc --disable-openssl --enable-avresample --enable-gnutls --enable-gpl --enable-hardcoded-tables --enable-libfreetype --enable-libopenh264 --enable-libx264 --enable-pic --enable-pthreads --enable-shared --enable-static --enable-version3 --enable-zlib --enable-libmp3lame --pkg-config=/home/conda/feedstock_root/build_artifacts/ffmpeg_1609680890771/_build_env/bin/pkg-config\n",
      "  libavutil      56. 51.100 / 56. 51.100\n",
      "  libavcodec     58. 91.100 / 58. 91.100\n",
      "  libavformat    58. 45.100 / 58. 45.100\n",
      "  libavdevice    58. 10.100 / 58. 10.100\n",
      "  libavfilter     7. 85.100 /  7. 85.100\n",
      "  libavresample   4.  0.  0 /  4.  0.  0\n",
      "  libswscale      5.  7.100 /  5.  7.100\n",
      "  libswresample   3.  7.100 /  3.  7.100\n",
      "  libpostproc    55.  7.100 / 55.  7.100\n",
      "Input #0, avi, from '/home/niell_lab/data/freely_moving_ephys/dlc_training_data/EphysEyeCams8_training_data/100621_J559TT_control_Rig2_fm1_REYE.avi':\n",
      "  Metadata:\n",
      "    encoder         : Lavf53.32.100\n",
      "  Duration: 00:50:27.63, start: 0.000000, bitrate: 3155 kb/s\n",
      "    Stream #0:0: Video: mpeg4 (Simple Profile) (FMP4 / 0x34504D46), yuv420p, 720x480 [SAR 1:1 DAR 3:2], 30 fps, 30 tbr, 30 tbn, 30 tbc\n",
      "Codec AVOption b (set bitrate (in bits/s)) specified for output file #0 (/home/niell_lab/data/freely_moving_ephys/dlc_training_data/EphysEyeCams8_training_data/100621_J559TT_control_Rig2_fm1_REYEdeinter.avi) has not been used for any stream. The most likely reason is either wrong type (e.g. a video option with no video streams) or that it is a private option of some encoder which was not actually used for any stream.\n",
      "Stream mapping:\n",
      "  Stream #0:0 -> #0:0 (mpeg4 (native) -> h264 (libx264))\n",
      "Press [q] to stop, [?] for help\n",
      "[libx264 @ 0x55b1806d3540] using SAR=9/8\n",
      "[libx264 @ 0x55b1806d3540] using cpu capabilities: MMX2 SSE2Fast SSSE3 SSE4.2 AVX FMA3 BMI2 AVX2 AVX512\n",
      "[libx264 @ 0x55b1806d3540] profile High, level 3.1, 4:2:0, 8-bit\n",
      "Output #0, avi, to '/home/niell_lab/data/freely_moving_ephys/dlc_training_data/EphysEyeCams8_training_data/100621_J559TT_control_Rig2_fm1_REYEdeinter.avi':\n",
      "  Metadata:\n",
      "    ISFT            : Lavf58.45.100\n",
      "    Stream #0:0: Video: h264 (libx264) (H264 / 0x34363248), yuv420p, 640x480 [SAR 9:8 DAR 3:2], q=-1--1, 60 fps, 60 tbn, 60 tbc\n",
      "    Metadata:\n",
      "      encoder         : Lavc58.91.100 libx264\n",
      "    Side data:\n",
      "      cpb: bitrate max/min/avg: 0/0/0 buffer size: 0 vbv_delay: N/A\n"
     ]
    },
    {
     "name": "stdout",
     "output_type": "stream",
     "text": [
      "starting to deinterlace and interpolate on 100621_J559TT_control_Rig2_fm1_REYE\n"
     ]
    },
    {
     "name": "stderr",
     "output_type": "stream",
     "text": [
      "frame=201336 fps=248 q=-1.0 Lsize=  508589kB time=00:55:55.56 bitrate=1241.6kbits/s speed=4.14x    \n",
      "video:503766kB audio:0kB subtitle:0kB other streams:0kB global headers:0kB muxing overhead: 0.957383%\n",
      "[libx264 @ 0x55b1806d3540] frame I:1357  Avg QP:19.38  size: 13042\n",
      "[libx264 @ 0x55b1806d3540] frame P:52549 Avg QP:21.84  size:  5648\n",
      "[libx264 @ 0x55b1806d3540] frame B:147430 Avg QP:25.83  size:  1366\n",
      "[libx264 @ 0x55b1806d3540] consecutive B-frames:  2.2%  0.2%  0.5% 97.0%\n",
      "[libx264 @ 0x55b1806d3540] mb I  I16..4: 20.6% 73.5%  5.9%\n",
      "[libx264 @ 0x55b1806d3540] mb P  I16..4:  3.0%  5.1%  0.1%  P16..4: 50.4% 16.3%  7.0%  0.0%  0.0%    skip:18.0%\n",
      "[libx264 @ 0x55b1806d3540] mb B  I16..4:  0.1%  0.2%  0.0%  B16..8: 40.4%  3.7%  0.5%  direct: 1.9%  skip:53.2%  L0:53.7% L1:42.7% BI: 3.7%\n",
      "[libx264 @ 0x55b1806d3540] 8x8 transform intra:64.6% inter:75.9%\n",
      "[libx264 @ 0x55b1806d3540] direct mvs  spatial:100.0% temporal:0.0%\n",
      "[libx264 @ 0x55b1806d3540] coded y,uvDC,uvAC intra: 48.8% 36.6% 5.2% inter: 11.9% 6.8% 0.2%\n",
      "[libx264 @ 0x55b1806d3540] i16 v,h,dc,p: 11% 15%  6% 67%\n",
      "[libx264 @ 0x55b1806d3540] i8 v,h,dc,ddl,ddr,vr,hd,vl,hu:  8% 10% 12%  7% 15% 13% 14%  8% 13%\n",
      "[libx264 @ 0x55b1806d3540] i4 v,h,dc,ddl,ddr,vr,hd,vl,hu:  8%  7%  6%  8% 18% 14% 17%  9% 13%\n",
      "[libx264 @ 0x55b1806d3540] i8c dc,h,v,p: 52% 27% 14%  7%\n",
      "[libx264 @ 0x55b1806d3540] Weighted P-Frames: Y:1.5% UV:0.3%\n",
      "[libx264 @ 0x55b1806d3540] ref P L0: 45.9%  9.9% 24.7%  8.5% 10.6%  0.4%  0.0%\n",
      "[libx264 @ 0x55b1806d3540] ref B L0: 75.4% 17.1%  5.4%  2.1%\n",
      "[libx264 @ 0x55b1806d3540] ref B L1: 94.3%  5.7%\n",
      "[libx264 @ 0x55b1806d3540] kb/s:1229.84\n",
      "ffmpeg version 4.3.1 Copyright (c) 2000-2020 the FFmpeg developers\n",
      "  built with gcc 9.3.0 (crosstool-NG 1.24.0.133_b0863d8_dirty)\n",
      "  configuration: --prefix=/home/niell_lab/anaconda3/envs/DLC-GPU1 --cc=/home/conda/feedstock_root/build_artifacts/ffmpeg_1609680890771/_build_env/bin/x86_64-conda-linux-gnu-cc --disable-doc --disable-openssl --enable-avresample --enable-gnutls --enable-gpl --enable-hardcoded-tables --enable-libfreetype --enable-libopenh264 --enable-libx264 --enable-pic --enable-pthreads --enable-shared --enable-static --enable-version3 --enable-zlib --enable-libmp3lame --pkg-config=/home/conda/feedstock_root/build_artifacts/ffmpeg_1609680890771/_build_env/bin/pkg-config\n",
      "  libavutil      56. 51.100 / 56. 51.100\n",
      "  libavcodec     58. 91.100 / 58. 91.100\n",
      "  libavformat    58. 45.100 / 58. 45.100\n",
      "  libavdevice    58. 10.100 / 58. 10.100\n",
      "  libavfilter     7. 85.100 /  7. 85.100\n",
      "  libavresample   4.  0.  0 /  4.  0.  0\n",
      "  libswscale      5.  7.100 /  5.  7.100\n",
      "  libswresample   3.  7.100 /  3.  7.100\n",
      "  libpostproc    55.  7.100 / 55.  7.100\n",
      "Input #0, avi, from '/home/niell_lab/data/freely_moving_ephys/dlc_training_data/EphysEyeCams8_training_data/100921_J559RT_control_Rig2_fm1_REYE.avi':\n",
      "  Metadata:\n",
      "    encoder         : Lavf53.32.100\n",
      "  Duration: 00:26:09.37, start: 0.000000, bitrate: 2111 kb/s\n",
      "    Stream #0:0: Video: mpeg4 (Simple Profile) (FMP4 / 0x34504D46), yuv420p, 720x480 [SAR 1:1 DAR 3:2], 2105 kb/s, 30 fps, 30 tbr, 30 tbn, 30 tbc\n",
      "Codec AVOption b (set bitrate (in bits/s)) specified for output file #0 (/home/niell_lab/data/freely_moving_ephys/dlc_training_data/EphysEyeCams8_training_data/100921_J559RT_control_Rig2_fm1_REYEdeinter.avi) has not been used for any stream. The most likely reason is either wrong type (e.g. a video option with no video streams) or that it is a private option of some encoder which was not actually used for any stream.\n",
      "Stream mapping:\n",
      "  Stream #0:0 -> #0:0 (mpeg4 (native) -> h264 (libx264))\n",
      "Press [q] to stop, [?] for help\n",
      "[libx264 @ 0x555b6e070600] using SAR=9/8\n",
      "[libx264 @ 0x555b6e070600] using cpu capabilities: MMX2 SSE2Fast SSSE3 SSE4.2 AVX FMA3 BMI2 AVX2 AVX512\n",
      "[libx264 @ 0x555b6e070600] profile High, level 3.1, 4:2:0, 8-bit\n",
      "Output #0, avi, to '/home/niell_lab/data/freely_moving_ephys/dlc_training_data/EphysEyeCams8_training_data/100921_J559RT_control_Rig2_fm1_REYEdeinter.avi':\n",
      "  Metadata:\n",
      "    ISFT            : Lavf58.45.100\n",
      "    Stream #0:0: Video: h264 (libx264) (H264 / 0x34363248), yuv420p, 640x480 [SAR 9:8 DAR 3:2], q=-1--1, 60 fps, 60 tbn, 60 tbc\n",
      "    Metadata:\n",
      "      encoder         : Lavc58.91.100 libx264\n",
      "    Side data:\n",
      "      cpb: bitrate max/min/avg: 0/0/0 buffer size: 0 vbv_delay: N/A\n"
     ]
    },
    {
     "name": "stdout",
     "output_type": "stream",
     "text": [
      "starting to deinterlace and interpolate on 100921_J559RT_control_Rig2_fm1_REYE\n"
     ]
    },
    {
     "name": "stderr",
     "output_type": "stream",
     "text": [
      "frame=94162 fps=275 q=-1.0 Lsize=  182850kB time=00:26:09.33 bitrate= 954.5kbits/s speed=4.58x    \n",
      "video:180592kB audio:0kB subtitle:0kB other streams:0kB global headers:0kB muxing overhead: 1.250546%\n",
      "[libx264 @ 0x555b6e070600] frame I:511   Avg QP:19.00  size: 11617\n",
      "[libx264 @ 0x555b6e070600] frame P:24045 Avg QP:21.46  size:  4347\n",
      "[libx264 @ 0x555b6e070600] frame B:69606 Avg QP:25.47  size:  1070\n",
      "[libx264 @ 0x555b6e070600] consecutive B-frames:  1.2%  0.4%  0.8% 97.6%\n",
      "[libx264 @ 0x555b6e070600] mb I  I16..4: 21.4% 73.5%  5.1%\n",
      "[libx264 @ 0x555b6e070600] mb P  I16..4:  2.9%  3.8%  0.1%  P16..4: 50.4% 14.1%  6.3%  0.0%  0.0%    skip:22.4%\n",
      "[libx264 @ 0x555b6e070600] mb B  I16..4:  0.1%  0.1%  0.0%  B16..8: 38.7%  2.7%  0.3%  direct: 1.2%  skip:56.9%  L0:52.7% L1:45.0% BI: 2.3%\n",
      "[libx264 @ 0x555b6e070600] 8x8 transform intra:59.6% inter:79.2%\n",
      "[libx264 @ 0x555b6e070600] direct mvs  spatial:100.0% temporal:0.0%\n",
      "[libx264 @ 0x555b6e070600] coded y,uvDC,uvAC intra: 40.3% 33.0% 4.5% inter: 8.6% 6.0% 0.0%\n",
      "[libx264 @ 0x555b6e070600] i16 v,h,dc,p: 12% 18%  7% 63%\n",
      "[libx264 @ 0x555b6e070600] i8 v,h,dc,ddl,ddr,vr,hd,vl,hu: 10% 12% 19%  6% 11% 10% 12%  8% 13%\n",
      "[libx264 @ 0x555b6e070600] i4 v,h,dc,ddl,ddr,vr,hd,vl,hu: 11%  8%  8%  9% 13% 12% 15% 11% 13%\n",
      "[libx264 @ 0x555b6e070600] i8c dc,h,v,p: 54% 27% 14%  6%\n",
      "[libx264 @ 0x555b6e070600] Weighted P-Frames: Y:6.7% UV:0.1%\n",
      "[libx264 @ 0x555b6e070600] ref P L0: 47.6%  9.0% 24.6%  8.4%  9.6%  0.7%  0.0%\n",
      "[libx264 @ 0x555b6e070600] ref B L0: 75.7% 17.1%  5.2%  1.9%\n",
      "[libx264 @ 0x555b6e070600] ref B L1: 94.1%  5.9%\n",
      "[libx264 @ 0x555b6e070600] kb/s:942.68\n",
      "ffmpeg version 4.3.1 Copyright (c) 2000-2020 the FFmpeg developers\n",
      "  built with gcc 9.3.0 (crosstool-NG 1.24.0.133_b0863d8_dirty)\n",
      "  configuration: --prefix=/home/niell_lab/anaconda3/envs/DLC-GPU1 --cc=/home/conda/feedstock_root/build_artifacts/ffmpeg_1609680890771/_build_env/bin/x86_64-conda-linux-gnu-cc --disable-doc --disable-openssl --enable-avresample --enable-gnutls --enable-gpl --enable-hardcoded-tables --enable-libfreetype --enable-libopenh264 --enable-libx264 --enable-pic --enable-pthreads --enable-shared --enable-static --enable-version3 --enable-zlib --enable-libmp3lame --pkg-config=/home/conda/feedstock_root/build_artifacts/ffmpeg_1609680890771/_build_env/bin/pkg-config\n",
      "  libavutil      56. 51.100 / 56. 51.100\n",
      "  libavcodec     58. 91.100 / 58. 91.100\n",
      "  libavformat    58. 45.100 / 58. 45.100\n",
      "  libavdevice    58. 10.100 / 58. 10.100\n",
      "  libavfilter     7. 85.100 /  7. 85.100\n",
      "  libavresample   4.  0.  0 /  4.  0.  0\n",
      "  libswscale      5.  7.100 /  5.  7.100\n",
      "  libswresample   3.  7.100 /  3.  7.100\n",
      "  libpostproc    55.  7.100 / 55.  7.100\n",
      "Input #0, avi, from '/home/niell_lab/data/freely_moving_ephys/dlc_training_data/EphysEyeCams8_training_data/100721_J582LT_control_Rig2_hf1_wn_REYE.avi':\n",
      "  Metadata:\n",
      "    encoder         : Lavf53.32.100\n",
      "  Duration: 00:15:21.47, start: 0.000000, bitrate: 1503 kb/s\n",
      "    Stream #0:0: Video: mpeg4 (Simple Profile) (FMP4 / 0x34504D46), yuv420p, 720x480 [SAR 1:1 DAR 3:2], 1497 kb/s, 30 fps, 30 tbr, 30 tbn, 30 tbc\n",
      "Codec AVOption b (set bitrate (in bits/s)) specified for output file #0 (/home/niell_lab/data/freely_moving_ephys/dlc_training_data/EphysEyeCams8_training_data/100721_J582LT_control_Rig2_hf1_wn_REYEdeinter.avi) has not been used for any stream. The most likely reason is either wrong type (e.g. a video option with no video streams) or that it is a private option of some encoder which was not actually used for any stream.\n",
      "Stream mapping:\n",
      "  Stream #0:0 -> #0:0 (mpeg4 (native) -> h264 (libx264))\n",
      "Press [q] to stop, [?] for help\n",
      "[libx264 @ 0x55da3be88a40] using SAR=9/8\n",
      "[libx264 @ 0x55da3be88a40] using cpu capabilities: MMX2 SSE2Fast SSSE3 SSE4.2 AVX FMA3 BMI2 AVX2 AVX512\n",
      "[libx264 @ 0x55da3be88a40] profile High, level 3.1, 4:2:0, 8-bit\n",
      "Output #0, avi, to '/home/niell_lab/data/freely_moving_ephys/dlc_training_data/EphysEyeCams8_training_data/100721_J582LT_control_Rig2_hf1_wn_REYEdeinter.avi':\n",
      "  Metadata:\n",
      "    ISFT            : Lavf58.45.100\n",
      "    Stream #0:0: Video: h264 (libx264) (H264 / 0x34363248), yuv420p, 640x480 [SAR 9:8 DAR 3:2], q=-1--1, 60 fps, 60 tbn, 60 tbc\n",
      "    Metadata:\n",
      "      encoder         : Lavc58.91.100 libx264\n",
      "    Side data:\n",
      "      cpb: bitrate max/min/avg: 0/0/0 buffer size: 0 vbv_delay: N/A\n"
     ]
    },
    {
     "name": "stdout",
     "output_type": "stream",
     "text": [
      "starting to deinterlace and interpolate on 100721_J582LT_control_Rig2_hf1_wn_REYE\n"
     ]
    },
    {
     "name": "stderr",
     "output_type": "stream",
     "text": [
      "frame=55288 fps=285 q=-1.0 Lsize=   88214kB time=00:15:21.43 bitrate= 784.3kbits/s speed=4.75x    \n",
      "video:86885kB audio:0kB subtitle:0kB other streams:0kB global headers:0kB muxing overhead: 1.528951%\n",
      "[libx264 @ 0x55da3be88a40] frame I:261   Avg QP:17.85  size: 15295\n",
      "[libx264 @ 0x55da3be88a40] frame P:14016 Avg QP:20.46  size:  4210\n",
      "[libx264 @ 0x55da3be88a40] frame B:41011 Avg QP:26.79  size:   633\n",
      "[libx264 @ 0x55da3be88a40] consecutive B-frames:  1.1%  0.1%  0.1% 98.8%\n",
      "[libx264 @ 0x55da3be88a40] mb I  I16..4: 17.7% 76.7%  5.7%\n",
      "[libx264 @ 0x55da3be88a40] mb P  I16..4:  1.4%  2.0%  0.1%  P16..4: 46.0% 14.9%  6.6%  0.0%  0.0%    skip:29.0%\n",
      "[libx264 @ 0x55da3be88a40] mb B  I16..4:  0.0%  0.0%  0.0%  B16..8: 33.5%  1.3%  0.1%  direct: 0.5%  skip:64.5%  L0:47.8% L1:50.4% BI: 1.8%\n",
      "[libx264 @ 0x55da3be88a40] 8x8 transform intra:63.4% inter:68.9%\n",
      "[libx264 @ 0x55da3be88a40] direct mvs  spatial:100.0% temporal:0.0%\n",
      "[libx264 @ 0x55da3be88a40] coded y,uvDC,uvAC intra: 51.4% 42.4% 5.7% inter: 7.0% 4.6% 0.0%\n",
      "[libx264 @ 0x55da3be88a40] i16 v,h,dc,p: 10% 16%  5% 69%\n",
      "[libx264 @ 0x55da3be88a40] i8 v,h,dc,ddl,ddr,vr,hd,vl,hu: 11% 12% 15%  7% 10% 10% 11%  9% 15%\n",
      "[libx264 @ 0x55da3be88a40] i4 v,h,dc,ddl,ddr,vr,hd,vl,hu: 11%  9%  9%  8% 13% 12% 14% 10% 14%\n",
      "[libx264 @ 0x55da3be88a40] i8c dc,h,v,p: 48% 31% 16%  6%\n",
      "[libx264 @ 0x55da3be88a40] Weighted P-Frames: Y:0.2% UV:0.0%\n",
      "[libx264 @ 0x55da3be88a40] ref P L0: 51.2% 11.0% 23.8%  5.6%  8.3%  0.1%  0.0%\n",
      "[libx264 @ 0x55da3be88a40] ref B L0: 76.7% 17.5%  4.2%  1.6%\n",
      "[libx264 @ 0x55da3be88a40] ref B L1: 94.5%  5.5%\n",
      "[libx264 @ 0x55da3be88a40] kb/s:772.42\n",
      "ffmpeg version 4.3.1 Copyright (c) 2000-2020 the FFmpeg developers\n",
      "  built with gcc 9.3.0 (crosstool-NG 1.24.0.133_b0863d8_dirty)\n",
      "  configuration: --prefix=/home/niell_lab/anaconda3/envs/DLC-GPU1 --cc=/home/conda/feedstock_root/build_artifacts/ffmpeg_1609680890771/_build_env/bin/x86_64-conda-linux-gnu-cc --disable-doc --disable-openssl --enable-avresample --enable-gnutls --enable-gpl --enable-hardcoded-tables --enable-libfreetype --enable-libopenh264 --enable-libx264 --enable-pic --enable-pthreads --enable-shared --enable-static --enable-version3 --enable-zlib --enable-libmp3lame --pkg-config=/home/conda/feedstock_root/build_artifacts/ffmpeg_1609680890771/_build_env/bin/pkg-config\n",
      "  libavutil      56. 51.100 / 56. 51.100\n",
      "  libavcodec     58. 91.100 / 58. 91.100\n",
      "  libavformat    58. 45.100 / 58. 45.100\n",
      "  libavdevice    58. 10.100 / 58. 10.100\n",
      "  libavfilter     7. 85.100 /  7. 85.100\n",
      "  libavresample   4.  0.  0 /  4.  0.  0\n",
      "  libswscale      5.  7.100 /  5.  7.100\n",
      "  libswresample   3.  7.100 /  3.  7.100\n",
      "  libpostproc    55.  7.100 / 55.  7.100\n",
      "Input #0, avi, from '/home/niell_lab/data/freely_moving_ephys/dlc_training_data/EphysEyeCams8_training_data/100821_J559RT_control_Rig2_fm1_REYE.avi':\n",
      "  Metadata:\n",
      "    encoder         : Lavf53.32.100\n",
      "  Duration: 01:00:18.37, start: 0.000000, bitrate: 2294 kb/s\n",
      "    Stream #0:0: Video: mpeg4 (Simple Profile) (FMP4 / 0x34504D46), yuv420p, 720x480 [SAR 1:1 DAR 3:2], 2288 kb/s, 30 fps, 30 tbr, 30 tbn, 30 tbc\n",
      "Codec AVOption b (set bitrate (in bits/s)) specified for output file #0 (/home/niell_lab/data/freely_moving_ephys/dlc_training_data/EphysEyeCams8_training_data/100821_J559RT_control_Rig2_fm1_REYEdeinter.avi) has not been used for any stream. The most likely reason is either wrong type (e.g. a video option with no video streams) or that it is a private option of some encoder which was not actually used for any stream.\n",
      "Stream mapping:\n",
      "  Stream #0:0 -> #0:0 (mpeg4 (native) -> h264 (libx264))\n",
      "Press [q] to stop, [?] for help\n",
      "[libx264 @ 0x5564bff2da40] using SAR=9/8\n",
      "[libx264 @ 0x5564bff2da40] using cpu capabilities: MMX2 SSE2Fast SSSE3 SSE4.2 AVX FMA3 BMI2 AVX2 AVX512\n",
      "[libx264 @ 0x5564bff2da40] profile High, level 3.1, 4:2:0, 8-bit\n",
      "Output #0, avi, to '/home/niell_lab/data/freely_moving_ephys/dlc_training_data/EphysEyeCams8_training_data/100821_J559RT_control_Rig2_fm1_REYEdeinter.avi':\n",
      "  Metadata:\n",
      "    ISFT            : Lavf58.45.100\n",
      "    Stream #0:0: Video: h264 (libx264) (H264 / 0x34363248), yuv420p, 640x480 [SAR 9:8 DAR 3:2], q=-1--1, 60 fps, 60 tbn, 60 tbc\n",
      "    Metadata:\n",
      "      encoder         : Lavc58.91.100 libx264\n",
      "    Side data:\n",
      "      cpb: bitrate max/min/avg: 0/0/0 buffer size: 0 vbv_delay: N/A\n"
     ]
    },
    {
     "name": "stdout",
     "output_type": "stream",
     "text": [
      "starting to deinterlace and interpolate on 100821_J559RT_control_Rig2_fm1_REYE\n"
     ]
    },
    {
     "name": "stderr",
     "output_type": "stream",
     "text": [
      "frame=217102 fps=265 q=-1.0 Lsize=  451490kB time=01:00:18.33 bitrate=1022.2kbits/s speed=4.41x    \n",
      "video:446291kB audio:0kB subtitle:0kB other streams:0kB global headers:0kB muxing overhead: 1.165070%\n",
      "[libx264 @ 0x5564bff2da40] frame I:1813  Avg QP:19.27  size: 10507\n",
      "[libx264 @ 0x5564bff2da40] frame P:57118 Avg QP:21.46  size:  4470\n",
      "[libx264 @ 0x5564bff2da40] frame B:158171 Avg QP:25.44  size:  1155\n",
      "[libx264 @ 0x5564bff2da40] consecutive B-frames:  2.7%  0.3%  0.8% 96.2%\n",
      "[libx264 @ 0x5564bff2da40] mb I  I16..4: 23.2% 72.2%  4.6%\n",
      "[libx264 @ 0x5564bff2da40] mb P  I16..4:  3.7%  5.2%  0.1%  P16..4: 48.7% 13.6%  6.0%  0.0%  0.0%    skip:22.7%\n",
      "[libx264 @ 0x5564bff2da40] mb B  I16..4:  0.1%  0.2%  0.0%  B16..8: 37.8%  3.1%  0.3%  direct: 1.5%  skip:57.0%  L0:53.7% L1:43.7% BI: 2.6%\n",
      "[libx264 @ 0x5564bff2da40] 8x8 transform intra:61.4% inter:79.8%\n",
      "[libx264 @ 0x5564bff2da40] direct mvs  spatial:100.0% temporal:0.0%\n",
      "[libx264 @ 0x5564bff2da40] coded y,uvDC,uvAC intra: 43.3% 34.7% 4.7% inter: 9.3% 6.7% 0.0%\n",
      "[libx264 @ 0x5564bff2da40] i16 v,h,dc,p: 11% 18%  6% 65%\n",
      "[libx264 @ 0x5564bff2da40] i8 v,h,dc,ddl,ddr,vr,hd,vl,hu:  9% 11% 15%  7% 13% 11% 13%  8% 13%\n",
      "[libx264 @ 0x5564bff2da40] i4 v,h,dc,ddl,ddr,vr,hd,vl,hu: 10%  8%  7%  9% 14% 13% 15% 11% 13%\n",
      "[libx264 @ 0x5564bff2da40] i8c dc,h,v,p: 53% 28% 13%  6%\n",
      "[libx264 @ 0x5564bff2da40] Weighted P-Frames: Y:3.2% UV:0.4%\n",
      "[libx264 @ 0x5564bff2da40] ref P L0: 48.4%  8.7% 23.9%  8.3% 10.1%  0.6%  0.0%\n",
      "[libx264 @ 0x5564bff2da40] ref B L0: 76.5% 16.7%  4.9%  1.8%\n",
      "[libx264 @ 0x5564bff2da40] ref B L1: 94.6%  5.4%\n",
      "[libx264 @ 0x5564bff2da40] kb/s:1010.40\n",
      "ffmpeg version 4.3.1 Copyright (c) 2000-2020 the FFmpeg developers\n",
      "  built with gcc 9.3.0 (crosstool-NG 1.24.0.133_b0863d8_dirty)\n",
      "  configuration: --prefix=/home/niell_lab/anaconda3/envs/DLC-GPU1 --cc=/home/conda/feedstock_root/build_artifacts/ffmpeg_1609680890771/_build_env/bin/x86_64-conda-linux-gnu-cc --disable-doc --disable-openssl --enable-avresample --enable-gnutls --enable-gpl --enable-hardcoded-tables --enable-libfreetype --enable-libopenh264 --enable-libx264 --enable-pic --enable-pthreads --enable-shared --enable-static --enable-version3 --enable-zlib --enable-libmp3lame --pkg-config=/home/conda/feedstock_root/build_artifacts/ffmpeg_1609680890771/_build_env/bin/pkg-config\n",
      "  libavutil      56. 51.100 / 56. 51.100\n",
      "  libavcodec     58. 91.100 / 58. 91.100\n",
      "  libavformat    58. 45.100 / 58. 45.100\n",
      "  libavdevice    58. 10.100 / 58. 10.100\n",
      "  libavfilter     7. 85.100 /  7. 85.100\n",
      "  libavresample   4.  0.  0 /  4.  0.  0\n",
      "  libswscale      5.  7.100 /  5.  7.100\n",
      "  libswresample   3.  7.100 /  3.  7.100\n",
      "  libpostproc    55.  7.100 / 55.  7.100\n",
      "Input #0, avi, from '/home/niell_lab/data/freely_moving_ephys/dlc_training_data/EphysEyeCams8_training_data/100621_J559TT_control_Rig2_hf1_wn_REYE.avi':\n",
      "  Metadata:\n",
      "    encoder         : Lavf53.32.100\n",
      "  Duration: 00:15:19.37, start: 0.000000, bitrate: 2061 kb/s\n",
      "    Stream #0:0: Video: mpeg4 (Simple Profile) (FMP4 / 0x34504D46), yuv420p, 720x480 [SAR 1:1 DAR 3:2], 2055 kb/s, 30 fps, 30 tbr, 30 tbn, 30 tbc\n",
      "Codec AVOption b (set bitrate (in bits/s)) specified for output file #0 (/home/niell_lab/data/freely_moving_ephys/dlc_training_data/EphysEyeCams8_training_data/100621_J559TT_control_Rig2_hf1_wn_REYEdeinter.avi) has not been used for any stream. The most likely reason is either wrong type (e.g. a video option with no video streams) or that it is a private option of some encoder which was not actually used for any stream.\n",
      "Stream mapping:\n",
      "  Stream #0:0 -> #0:0 (mpeg4 (native) -> h264 (libx264))\n",
      "Press [q] to stop, [?] for help\n",
      "[libx264 @ 0x564c2a2aaa40] using SAR=9/8\n",
      "[libx264 @ 0x564c2a2aaa40] using cpu capabilities: MMX2 SSE2Fast SSSE3 SSE4.2 AVX FMA3 BMI2 AVX2 AVX512\n",
      "[libx264 @ 0x564c2a2aaa40] profile High, level 3.1, 4:2:0, 8-bit\n",
      "Output #0, avi, to '/home/niell_lab/data/freely_moving_ephys/dlc_training_data/EphysEyeCams8_training_data/100621_J559TT_control_Rig2_hf1_wn_REYEdeinter.avi':\n",
      "  Metadata:\n",
      "    ISFT            : Lavf58.45.100\n",
      "    Stream #0:0: Video: h264 (libx264) (H264 / 0x34363248), yuv420p, 640x480 [SAR 9:8 DAR 3:2], q=-1--1, 60 fps, 60 tbn, 60 tbc\n",
      "    Metadata:\n",
      "      encoder         : Lavc58.91.100 libx264\n",
      "    Side data:\n",
      "      cpb: bitrate max/min/avg: 0/0/0 buffer size: 0 vbv_delay: N/A\n"
     ]
    },
    {
     "name": "stdout",
     "output_type": "stream",
     "text": [
      "starting to deinterlace and interpolate on 100621_J559TT_control_Rig2_hf1_wn_REYE\n"
     ]
    },
    {
     "name": "stderr",
     "output_type": "stream",
     "text": [
      "frame=55162 fps=278 q=-1.0 Lsize=  104664kB time=00:15:19.33 bitrate= 932.6kbits/s speed=4.63x    \n",
      "video:103338kB audio:0kB subtitle:0kB other streams:0kB global headers:0kB muxing overhead: 1.282862%\n",
      "[libx264 @ 0x564c2a2aaa40] frame I:245   Avg QP:18.18  size: 17142\n",
      "[libx264 @ 0x564c2a2aaa40] frame P:14036 Avg QP:20.98  size:  4736\n",
      "[libx264 @ 0x564c2a2aaa40] frame B:40881 Avg QP:26.01  size:   860\n",
      "[libx264 @ 0x564c2a2aaa40] consecutive B-frames:  1.2%  0.1%  0.1% 98.7%\n",
      "[libx264 @ 0x564c2a2aaa40] mb I  I16..4: 17.5% 74.7%  7.8%\n",
      "[libx264 @ 0x564c2a2aaa40] mb P  I16..4:  1.7%  2.6%  0.1%  P16..4: 48.0% 14.9%  7.2%  0.0%  0.0%    skip:25.5%\n",
      "[libx264 @ 0x564c2a2aaa40] mb B  I16..4:  0.0%  0.1%  0.0%  B16..8: 35.9%  2.0%  0.2%  direct: 0.9%  skip:60.8%  L0:53.7% L1:43.8% BI: 2.5%\n",
      "[libx264 @ 0x564c2a2aaa40] 8x8 transform intra:63.3% inter:70.4%\n",
      "[libx264 @ 0x564c2a2aaa40] direct mvs  spatial:100.0% temporal:0.0%\n",
      "[libx264 @ 0x564c2a2aaa40] coded y,uvDC,uvAC intra: 49.0% 41.9% 7.4% inter: 8.4% 5.4% 0.1%\n",
      "[libx264 @ 0x564c2a2aaa40] i16 v,h,dc,p: 11% 17%  7% 65%\n",
      "[libx264 @ 0x564c2a2aaa40] i8 v,h,dc,ddl,ddr,vr,hd,vl,hu: 10% 12% 14%  7% 13% 12% 13%  7% 13%\n",
      "[libx264 @ 0x564c2a2aaa40] i4 v,h,dc,ddl,ddr,vr,hd,vl,hu: 10%  8%  7%  7% 18% 14% 15%  8% 13%\n",
      "[libx264 @ 0x564c2a2aaa40] i8c dc,h,v,p: 47% 30% 16%  7%\n",
      "[libx264 @ 0x564c2a2aaa40] Weighted P-Frames: Y:0.1% UV:0.0%\n",
      "[libx264 @ 0x564c2a2aaa40] ref P L0: 45.6%  9.6% 25.2%  8.5% 11.0%  0.1%  0.0%\n",
      "[libx264 @ 0x564c2a2aaa40] ref B L0: 73.3% 18.2%  6.0%  2.5%\n",
      "[libx264 @ 0x564c2a2aaa40] ref B L1: 94.0%  6.0%\n",
      "[libx264 @ 0x564c2a2aaa40] kb/s:920.80\n"
     ]
    }
   ],
   "source": [
    "deinterlace_data(config)"
   ]
  },
  {
   "cell_type": "code",
   "execution_count": null,
   "metadata": {},
   "outputs": [],
   "source": []
  }
 ],
 "metadata": {
  "kernelspec": {
   "display_name": "Python [conda env:DLC-GPU1]",
   "language": "python",
   "name": "conda-env-DLC-GPU1-py"
  },
  "language_info": {
   "codemirror_mode": {
    "name": "ipython",
    "version": 3
   },
   "file_extension": ".py",
   "mimetype": "text/x-python",
   "name": "python",
   "nbconvert_exporter": "python",
   "pygments_lexer": "ipython3",
   "version": "3.8.10"
  }
 },
 "nbformat": 4,
 "nbformat_minor": 4
}
